<?xml version="1.0" encoding="UTF-8"?>
<!DOCTYPE svg PUBLIC "-//W3C//DTD SVG 1.1//EN" "http://www.w3.org/Graphics/SVG/1.1/DTD/svg11.dtd">
<svg xmlns="http://www.w3.org/2000/svg" version="1.1" width="185px" height="276px" style="shape-rendering:geometricPrecision; text-rendering:geometricPrecision; image-rendering:optimizeQuality; fill-rule:evenodd; clip-rule:evenodd" xmlns:xlink="http://www.w3.org/1999/xlink">
<g><path style="opacity:1" fill="#e7e2ef" d="M 4.5,2.5 C 6.59937,3.61185 8.93271,4.27852 11.5,4.5C 13.1439,4.28649 14.6439,4.61983 16,5.5C 16.4379,62.8593 16.2712,120.193 15.5,177.5C 14.931,181.329 15.5977,184.663 17.5,187.5C 19.8185,187.992 21.8185,188.992 23.5,190.5C 23.9731,191.906 24.9731,192.573 26.5,192.5C 27.4916,192.328 28.1583,192.662 28.5,193.5C 28.9731,194.906 29.9731,195.573 31.5,195.5C 32.1667,195.5 32.5,195.833 32.5,196.5C 32.9731,197.906 33.9731,198.573 35.5,198.5C 36.5,198.833 37.1667,199.5 37.5,200.5C 38.2623,202.262 39.5956,203.262 41.5,203.5C 45.5,206.833 49.1667,210.5 52.5,214.5C 52.7376,216.404 53.7376,217.738 55.5,218.5C 55.7376,220.404 56.7376,221.738 58.5,222.5C 59.4013,223.29 60.0679,224.29 60.5,225.5C 60.9925,227.819 61.9925,229.819 63.5,231.5C 64.4013,232.29 65.0679,233.29 65.5,234.5C 65.2291,236.38 65.8958,237.713 67.5,238.5C 69.6228,241.867 70.9561,245.534 71.5,249.5C 71.595,251.786 72.2616,253.786 73.5,255.5C 75.2243,260.945 76.0576,266.611 76,272.5C 74.3333,273.833 72.6667,273.833 71,272.5C 69.951,268.867 69.1177,265.201 68.5,261.5C 68.7406,259.102 68.0739,257.102 66.5,255.5C 64.6157,252.397 63.2824,249.063 62.5,245.5C 62.7709,243.62 62.1042,242.287 60.5,241.5C 59.3263,240.486 58.6596,239.153 58.5,237.5C 58.1667,236.5 57.5,235.833 56.5,235.5C 56.573,233.973 55.9063,232.973 54.5,232.5C 53.8333,232.5 53.5,232.167 53.5,231.5C 53.573,229.973 52.9063,228.973 51.5,228.5C 48.8333,226.5 46.5,224.167 44.5,221.5C 43.7377,219.738 42.4044,218.738 40.5,218.5C 39.8333,218.5 39.5,218.167 39.5,217.5C 39.0269,216.094 38.0269,215.427 36.5,215.5C 34.7697,214.974 33.4363,213.974 32.5,212.5C 31.4863,211.326 30.153,210.66 28.5,210.5C 26.847,210.34 25.5137,209.674 24.5,208.5C 21.6305,206.206 18.2971,204.872 14.5,204.5C 13.209,204.737 12.209,204.404 11.5,203.5C 8.82909,201.882 5.82909,201.215 2.5,201.5C 1.88258,201.389 1.38258,201.056 1,200.5C 0.333333,134.5 0.333333,68.5 1,2.5C 2.29167,1.20891 3.45834,1.20891 4.5,2.5 Z"/></g>
<g><path style="opacity:0.251" fill="#1c2e7e" d="M 4.5,2.5 C 7.22817,2.17057 9.5615,2.83724 11.5,4.5C 8.93271,4.27852 6.59937,3.61185 4.5,2.5 Z"/></g>
<g><path style="opacity:1" fill="#f6f5f9" d="M 26.5,9.5 C 27.4916,9.32842 28.1583,9.66175 28.5,10.5C 30.1815,12.0075 32.1815,13.0075 34.5,13.5C 36.153,13.6596 37.4863,14.3263 38.5,15.5C 38.9731,16.9063 39.9731,17.573 41.5,17.5C 43.4341,18.1103 45.1007,19.1103 46.5,20.5C 46.9731,21.9063 47.9731,22.573 49.5,22.5C 50.8717,23.5116 52.205,24.5116 53.5,25.5C 53.9731,26.9063 54.9731,27.573 56.5,27.5C 57.6628,48.9961 57.8295,70.6628 57,92.5C 56.6174,93.056 56.1174,93.3893 55.5,93.5C 54.0937,93.9731 53.427,94.9731 53.5,96.5C 46.1118,107.753 43.4452,120.086 45.5,133.5C 45.4021,135.553 46.0687,137.22 47.5,138.5C 48.8662,142.237 50.5328,145.904 52.5,149.5C 52.427,151.027 53.0937,152.027 54.5,152.5C 55.1174,152.611 55.6174,152.944 56,153.5C 56.4035,161.597 57.2368,169.597 58.5,177.5C 58.427,179.027 59.0937,180.027 60.5,180.5C 61.9063,180.973 62.573,181.973 62.5,183.5C 62.427,185.027 63.0937,186.027 64.5,186.5C 65.9063,186.973 66.573,187.973 66.5,189.5C 66.427,191.027 67.0937,192.027 68.5,192.5C 70.0075,194.181 71.0075,196.181 71.5,198.5C 72.3257,201.485 73.659,204.151 75.5,206.5C 81.9507,218.959 85.6174,232.293 86.5,246.5C 87.2987,255.142 87.632,263.809 87.5,272.5C 84.7699,273.817 81.9365,273.817 79,272.5C 78.0878,267.536 77.5878,262.536 77.5,257.5C 77.4349,254.572 76.7682,251.905 75.5,249.5C 74.2318,247.095 73.5651,244.428 73.5,241.5C 73.0652,238.843 72.0652,236.509 70.5,234.5C 69.596,233.791 69.2627,232.791 69.5,231.5C 69.3404,229.847 68.6737,228.514 67.5,227.5C 64.5155,222.202 61.5155,216.868 58.5,211.5C 58.573,209.973 57.9063,208.973 56.5,208.5C 56.573,206.973 55.9063,205.973 54.5,205.5C 53.5,205.167 52.8333,204.5 52.5,203.5C 52.573,201.973 51.9063,200.973 50.5,200.5C 46.5,197.167 42.8333,193.5 39.5,189.5C 39.0269,188.094 38.0269,187.427 36.5,187.5C 35.5,187.167 34.8333,186.5 34.5,185.5C 34.0269,184.094 33.0269,183.427 31.5,183.5C 31.0269,182.094 30.0269,181.427 28.5,181.5C 26.5659,180.89 24.8993,179.89 23.5,178.5C 23.5,122.167 23.5,65.8333 23.5,9.5C 24.5,9.5 25.5,9.5 26.5,9.5 Z"/></g>
<g><path style="opacity:0.553" fill="#1a257d" d="M 28.5,10.5 C 31.089,10.461 33.089,11.461 34.5,13.5C 32.1815,13.0075 30.1815,12.0075 28.5,10.5 Z"/></g>
<g><path style="opacity:0.129" fill="#142072" d="M 38.5,15.5 C 40.0269,15.427 41.0269,16.0937 41.5,17.5C 39.9731,17.573 38.9731,16.9063 38.5,15.5 Z"/></g>
<g><path style="opacity:0.055" fill="#111f6b" d="M 46.5,20.5 C 48.0269,20.427 49.0269,21.0937 49.5,22.5C 47.9731,22.573 46.9731,21.9063 46.5,20.5 Z"/></g>
<g><path style="opacity:0.071" fill="#111b77" d="M 53.5,25.5 C 55.0269,25.427 56.0269,26.0937 56.5,27.5C 54.9731,27.573 53.9731,26.9063 53.5,25.5 Z"/></g>
<g><path style="opacity:1" fill="#f8f7fa" d="M 182.5,200.5 C 178.989,200.899 175.656,201.566 172.5,202.5C 166.33,205.004 159.996,207.338 153.5,209.5C 151.973,209.427 150.973,210.094 150.5,211.5C 149.035,212.737 147.368,213.737 145.5,214.5C 143.973,214.427 142.973,215.094 142.5,216.5C 140.973,216.427 139.973,217.094 139.5,218.5C 136.167,222.5 132.5,226.167 128.5,229.5C 127.094,229.973 126.427,230.973 126.5,232.5C 125.525,234.795 124.192,236.795 122.5,238.5C 121.094,238.973 120.427,239.973 120.5,241.5C 116.151,251.693 112.817,262.193 110.5,273C 108.5,273.667 106.5,273.667 104.5,273C 103.85,263.097 105.517,253.597 109.5,244.5C 110.931,243.22 111.598,241.553 111.5,239.5C 111.328,238.508 111.662,237.842 112.5,237.5C 113.931,236.22 114.598,234.553 114.5,232.5C 117.08,226.332 120.414,220.665 124.5,215.5C 125.906,215.027 126.573,214.027 126.5,212.5C 127.833,210.5 129.5,208.833 131.5,207.5C 134.833,204.833 137.833,201.833 140.5,198.5C 141.167,197.167 142.167,196.167 143.5,195.5C 145.027,195.573 146.027,194.906 146.5,193.5C 146.5,192.833 146.833,192.5 147.5,192.5C 149.404,192.262 150.738,191.262 151.5,189.5C 153.027,189.573 154.027,188.906 154.5,187.5C 156.674,187.25 158.341,186.25 159.5,184.5C 159.842,183.662 160.508,183.328 161.5,183.5C 163.164,132.173 164.164,80.5065 164.5,28.5C 166.071,27.6906 167.738,27.3573 169.5,27.5C 173.824,27.0728 178.158,26.7395 182.5,26.5C 182.5,84.5 182.5,142.5 182.5,200.5 Z"/></g>
<g><path style="opacity:1" fill="#f6f5f9" d="M 150.5,175.5 C 150.5,176.167 150.167,176.5 149.5,176.5C 148.5,176.833 147.833,177.5 147.5,178.5C 146.833,179.833 145.833,180.833 144.5,181.5C 143.167,181.5 142.5,182.167 142.5,183.5C 140.973,183.427 139.973,184.094 139.5,185.5C 138.167,187.5 136.5,189.167 134.5,190.5C 133.094,190.973 132.427,191.973 132.5,193.5C 131.5,195.167 130.167,196.5 128.5,197.5C 127.094,197.973 126.427,198.973 126.5,200.5C 125.974,202.23 124.974,203.564 123.5,204.5C 122.094,204.973 121.427,205.973 121.5,207.5C 121.672,208.492 121.338,209.158 120.5,209.5C 119.094,209.973 118.427,210.973 118.5,212.5C 117.094,212.973 116.427,213.973 116.5,215.5C 115.07,219.354 113.403,223.021 111.5,226.5C 110.069,227.78 109.402,229.447 109.5,231.5C 109.405,233.786 108.738,235.786 107.5,237.5C 106.262,239.214 105.595,241.214 105.5,243.5C 104.246,253.194 102.746,262.861 101,272.5C 97.6667,273.833 94.3333,273.833 91,272.5C 90.1691,238.664 90.3358,204.998 91.5,171.5C 96.4526,171.877 101.119,171.211 105.5,169.5C 106.209,168.596 107.209,168.263 108.5,168.5C 111.241,168.293 113.574,167.293 115.5,165.5C 116.29,164.599 117.29,163.932 118.5,163.5C 120.027,163.573 121.027,162.906 121.5,161.5C 121.833,160.5 122.5,159.833 123.5,159.5C 126.089,158.581 128.089,156.914 129.5,154.5C 129.427,152.973 130.094,151.973 131.5,151.5C 132.906,151.027 133.573,150.027 133.5,148.5C 134.93,144.646 136.597,140.979 138.5,137.5C 142.408,128.178 142.408,118.845 138.5,109.5C 137.596,108.791 137.263,107.791 137.5,106.5C 136.921,103.669 135.588,101.336 133.5,99.5C 132.662,99.1583 132.328,98.4916 132.5,97.5C 132.573,95.9731 131.906,94.9731 130.5,94.5C 129.5,94.1667 128.833,93.5 128.5,92.5C 127.833,89.8333 126.167,88.1667 123.5,87.5C 122.833,87.5 122.5,87.1667 122.5,86.5C 121.738,84.7376 120.404,83.7376 118.5,83.5C 115.519,80.5124 111.852,78.8457 107.5,78.5C 102.518,76.2612 97.1843,75.2612 91.5,75.5C 90.3622,72.6965 90.1955,69.6965 91,66.5C 91.3826,65.944 91.8826,65.6107 92.5,65.5C 93.8333,64.8333 94.8333,63.8333 95.5,62.5C 96.5,60.8333 97.8333,59.5 99.5,58.5C 101.027,58.573 102.027,57.9063 102.5,56.5C 103.262,54.7376 104.596,53.7376 106.5,53.5C 108.027,53.573 109.027,52.9063 109.5,51.5C 111.147,49.6736 113.147,48.3403 115.5,47.5C 117.027,47.573 118.027,46.9063 118.5,45.5C 120.027,45.573 121.027,44.9063 121.5,43.5C 121.842,42.6618 122.508,42.3284 123.5,42.5C 125.819,42.0075 127.819,41.0075 129.5,39.5C 131.181,37.9925 133.181,36.9925 135.5,36.5C 137.553,36.5979 139.22,35.9313 140.5,34.5C 142.786,34.405 144.786,33.7384 146.5,32.5C 147.822,32.67 148.989,32.3366 150,31.5C 150.5,79.4988 150.667,127.499 150.5,175.5 Z"/></g>
<g><path style="opacity:0.188" fill="#1c2b7b" d="M 146.5,32.5 C 144.786,33.7384 142.786,34.405 140.5,34.5C 142.102,32.9261 144.102,32.2594 146.5,32.5 Z"/></g>
<g><path style="opacity:0.133" fill="#212c79" d="M 140.5,34.5 C 139.22,35.9313 137.553,36.5979 135.5,36.5C 136.78,35.0687 138.447,34.4021 140.5,34.5 Z"/></g>
<g><path style="opacity:0.125" fill="#18236c" d="M 129.5,39.5 C 127.819,41.0075 125.819,42.0075 123.5,42.5C 124.911,40.461 126.911,39.461 129.5,39.5 Z"/></g>
<g><path style="opacity:0.506" fill="#1a307d" d="M 121.5,43.5 C 121.027,44.9063 120.027,45.573 118.5,45.5C 118.973,44.0937 119.973,43.427 121.5,43.5 Z"/></g>
<g><path style="opacity:0.62" fill="#182c7a" d="M 118.5,45.5 C 118.027,46.9063 117.027,47.573 115.5,47.5C 115.973,46.0937 116.973,45.427 118.5,45.5 Z"/></g>
<g><path style="opacity:0.573" fill="#15267a" d="M 109.5,51.5 C 109.027,52.9063 108.027,53.573 106.5,53.5C 106.973,52.0937 107.973,51.427 109.5,51.5 Z"/></g>
<g><path style="opacity:0.482" fill="#122575" d="M 102.5,56.5 C 102.027,57.9063 101.027,58.573 99.5,58.5C 99.9731,57.0937 100.973,56.427 102.5,56.5 Z"/></g>
<g><path style="opacity:0.408" fill="#0c2070" d="M 95.5,62.5 C 94.8333,63.8333 93.8333,64.8333 92.5,65.5C 92.5,63.5 93.5,62.5 95.5,62.5 Z"/></g>
<g><path style="opacity:1" fill="#f0eef5" d="M 112.5,82.5 C 112.973,83.9063 113.973,84.573 115.5,84.5C 119.474,88.1384 123.474,91.8051 127.5,95.5C 128.167,95.5 128.5,95.8333 128.5,96.5C 128.427,98.0269 129.094,99.0269 130.5,99.5C 131.338,99.8417 131.672,100.508 131.5,101.5C 131.992,103.819 132.992,105.819 134.5,107.5C 135.434,108.568 135.768,109.901 135.5,111.5C 136.833,119.5 136.833,127.5 135.5,135.5C 135.768,137.099 135.434,138.432 134.5,139.5C 133.069,140.78 132.402,142.447 132.5,144.5C 130.75,145.659 129.75,147.326 129.5,149.5C 129.5,150.167 129.167,150.5 128.5,150.5C 127.094,150.973 126.427,151.973 126.5,153.5C 124.833,155.833 122.833,157.833 120.5,159.5C 118.973,159.427 117.973,160.094 117.5,161.5C 116.71,162.401 115.71,163.068 114.5,163.5C 112.847,163.66 111.514,164.326 110.5,165.5C 108.214,165.595 106.214,166.262 104.5,167.5C 100.167,168.167 95.8333,168.833 91.5,169.5C 91.9628,166.779 92.6295,164.112 93.5,161.5C 94.9063,161.027 95.573,160.027 95.5,158.5C 95.3284,157.508 95.6618,156.842 96.5,156.5C 98.0739,154.898 98.7406,152.898 98.5,150.5C 96.076,150.808 93.7427,150.474 91.5,149.5C 94.4281,148.516 97.4281,148.183 100.5,148.5C 100.5,147.5 100.5,146.5 100.5,145.5C 102.871,138.829 103.871,131.829 103.5,124.5C 87.5,123.833 87.5,123.167 103.5,122.5C 103.26,114.729 102.26,107.062 100.5,99.5C 97.5525,99.7771 94.7191,99.4438 92,98.5C 91.8333,98.1667 91.6667,97.8333 91.5,97.5C 93.7427,96.5258 96.076,96.1924 98.5,96.5C 98.5979,94.4471 97.9313,92.7804 96.5,91.5C 94.9925,89.8185 93.9925,87.8185 93.5,85.5C 92.0669,83.4418 91.4003,81.1085 91.5,78.5C 98.7497,78.5848 105.75,79.9182 112.5,82.5 Z M 98.5,85.5 C 99.8333,85.8333 101.167,86.1667 102.5,86.5C 102.5,87.1667 102.833,87.5 103.5,87.5C 104.262,89.2624 105.596,90.2624 107.5,90.5C 108.5,92.1667 109.833,93.5 111.5,94.5C 108.696,95.6378 105.696,95.8045 102.5,95C 101.432,92.5619 100.098,90.3952 98.5,88.5C 98.5,87.5 98.5,86.5 98.5,85.5 Z M 108.5,85.5 C 109.5,85.5 110.5,85.5 111.5,85.5C 111.842,86.3382 112.508,86.6716 113.5,86.5C 114.262,88.2624 115.596,89.2624 117.5,89.5C 118.96,91.4628 120.627,93.2962 122.5,95C 120.527,95.4955 118.527,95.6621 116.5,95.5C 116.167,94.5 115.5,93.8333 114.5,93.5C 112.909,90.5691 110.909,87.9024 108.5,85.5 Z M 116.5,101.5 C 118.912,107.072 120.912,112.739 122.5,118.5C 122.5,118.833 122.5,119.167 122.5,119.5C 120.429,120.809 117.929,121.475 115,121.5C 112.5,121.167 110,120.833 107.5,120.5C 106.903,117.029 106.236,113.695 105.5,110.5C 105.384,107.14 105.051,103.807 104.5,100.5C 108.6,100.237 112.6,100.57 116.5,101.5 Z M 120.5,101.5 C 122.607,100.532 124.941,100.198 127.5,100.5C 128.326,103.485 129.659,106.151 131.5,108.5C 131.595,110.786 132.262,112.786 133.5,114.5C 133.5,114.833 133.5,115.167 133.5,115.5C 133.5,117.5 133.5,119.5 133.5,121.5C 131.167,121.5 128.833,121.5 126.5,121.5C 126.368,114.96 124.701,108.96 121.5,103.5C 121.672,102.508 121.338,101.842 120.5,101.5 Z M 118.5,143.5 C 117.094,143.973 116.427,144.973 116.5,146.5C 112.6,147.43 108.6,147.763 104.5,147.5C 104.5,145.833 104.5,144.167 104.5,142.5C 105.451,141.081 105.784,139.415 105.5,137.5C 106.236,134.305 106.903,130.971 107.5,127.5C 112.5,126.167 117.5,126.167 122.5,127.5C 121.038,132.812 119.705,138.145 118.5,143.5 Z M 133.5,132.5 C 132.262,134.214 131.595,136.214 131.5,138.5C 130.463,139.93 129.796,141.597 129.5,143.5C 128.094,143.973 127.427,144.973 127.5,146.5C 125.059,147.756 122.726,147.756 120.5,146.5C 121.931,145.22 122.598,143.553 122.5,141.5C 124.074,139.898 124.741,137.898 124.5,135.5C 124.5,135.167 124.5,134.833 124.5,134.5C 126.223,132.22 126.889,129.553 126.5,126.5C 128.833,126.5 131.167,126.5 133.5,126.5C 133.5,128.5 133.5,130.5 133.5,132.5 Z M 105.5,158.5 C 104.29,158.932 103.29,159.599 102.5,160.5C 101.167,160.833 99.8333,161.167 98.5,161.5C 98.5,160.833 98.5,160.167 98.5,159.5C 100.104,158.713 100.771,157.38 100.5,155.5C 101.404,154.791 101.737,153.791 101.5,152.5C 104.743,151.42 108.076,151.253 111.5,152C 109.294,154.037 107.294,156.203 105.5,158.5 Z M 117.5,151.5 C 118.833,151.833 120.167,152.167 121.5,152.5C 120.89,153.391 120.557,154.391 120.5,155.5C 117.477,157.533 114.477,159.533 111.5,161.5C 110.5,161.5 109.5,161.5 108.5,161.5C 108.833,160.833 109.167,160.167 109.5,159.5C 111.833,159.167 113.167,157.833 113.5,155.5C 114.833,155.5 115.5,154.833 115.5,153.5C 116.5,153.167 117.167,152.5 117.5,151.5 Z"/></g>
<g><path style="opacity:0.475" fill="#152579" d="M 79.5,83.5 C 78.791,82.596 77.791,82.2627 76.5,82.5C 78.0439,81.086 79.7106,80.7526 81.5,81.5C 81.1445,82.5223 80.4778,83.189 79.5,83.5 Z"/></g>
<g><path style="opacity:1" fill="#d5d0e4" d="M 76.5,82.5 C 77.791,82.2627 78.791,82.596 79.5,83.5C 77.9731,83.427 76.9731,84.0937 76.5,85.5C 74.9731,85.427 73.9731,86.0937 73.5,87.5C 72.1667,89.5 70.5,91.1667 68.5,92.5C 67.0937,92.9731 66.427,93.9731 66.5,95.5C 63.9407,95.8016 61.6074,95.4682 59.5,94.5C 61.1667,92.1667 63.1667,90.1667 65.5,88.5C 67.0269,88.573 68.0269,87.9063 68.5,86.5C 69.5137,85.3263 70.847,84.6596 72.5,84.5C 74.153,84.3404 75.4863,83.6737 76.5,82.5 Z"/></g>
<g><path style="opacity:0.502" fill="#141f6f" d="M 111.5,85.5 C 110.5,85.5 109.5,85.5 108.5,85.5C 107.833,84.1667 107.167,84.1667 106.5,85.5C 104.391,84.6091 102.391,83.4424 100.5,82C 104.676,81.6702 108.343,82.8368 111.5,85.5 Z"/></g>
<g><path style="opacity:0.408" fill="#192262" d="M 76.5,82.5 C 75.4863,83.6737 74.153,84.3404 72.5,84.5C 73.287,82.8958 74.6203,82.2291 76.5,82.5 Z"/></g>
<g><path style="opacity:1" fill="#d9d4e6" d="M 84.5,87.5 C 83.7362,90.0177 82.7362,92.351 81.5,94.5C 77.7316,95.7866 74.0649,95.7866 70.5,94.5C 71.8333,92.5 73.5,90.8333 75.5,89.5C 77.4044,89.2624 78.7377,88.2624 79.5,86.5C 80.2905,85.5987 81.2905,84.9321 82.5,84.5C 85.6874,83.1633 86.354,84.1633 84.5,87.5 Z"/></g>
<g><path style="opacity:0.047" fill="#142177" d="M 84.5,87.5 C 86.354,84.1633 85.6874,83.1633 82.5,84.5C 83.9147,82.0828 85.5813,81.5828 87.5,83C 87.1015,84.9812 86.1015,86.4812 84.5,87.5 Z"/></g>
<g><path style="opacity:1" fill="#ded9ea" d="M 84.5,94.5 C 85.0421,91.0878 86.3754,88.0878 88.5,85.5C 89.4584,85.0472 90.2917,84.3805 91,83.5C 91.4988,87.4862 91.6655,91.4862 91.5,95.5C 88.9407,95.8016 86.6074,95.4682 84.5,94.5 Z"/></g>
<g><path style="opacity:0.071" fill="#0c2072" d="M 102.5,86.5 C 101.167,86.1667 99.8333,85.8333 98.5,85.5C 98.5,86.5 98.5,87.5 98.5,88.5C 96.6013,86.7471 95.9347,84.7471 96.5,82.5C 98.9106,83.3611 100.911,84.6944 102.5,86.5 Z"/></g>
<g><path style="opacity:0.161" fill="#091573" d="M 112.5,82.5 C 113.167,82.5 113.833,82.5 114.5,82.5C 114.833,83.1667 115.167,83.8333 115.5,84.5C 113.973,84.573 112.973,83.9063 112.5,82.5 Z"/></g>
<g><path style="opacity:0.455" fill="#0b135c" d="M 118.5,83.5 C 120.404,83.7376 121.738,84.7376 122.5,86.5C 121.833,86.5 121.167,86.5 120.5,86.5C 120.5,85.8333 120.167,85.5 119.5,85.5C 119.167,84.8333 118.833,84.1667 118.5,83.5 Z"/></g>
<g><path style="opacity:0.008" fill="#10177a" d="M 79.5,83.5 C 79.0269,84.9063 78.0269,85.573 76.5,85.5C 76.9731,84.0937 77.9731,83.427 79.5,83.5 Z"/></g>
<g><path style="opacity:0.047" fill="#05186d" d="M 76.5,85.5 C 76.0269,86.9063 75.0269,87.573 73.5,87.5C 73.9731,86.0937 74.9731,85.427 76.5,85.5 Z"/></g>
<g><path style="opacity:0.435" fill="#051873" d="M 68.5,86.5 C 68.0269,87.9063 67.0269,88.573 65.5,88.5C 65.9731,87.0937 66.9731,86.427 68.5,86.5 Z"/></g>
<g><path style="opacity:0.227" fill="#070e5d" d="M 103.5,87.5 C 105.404,87.7376 106.738,88.7376 107.5,90.5C 105.596,90.2624 104.262,89.2624 103.5,87.5 Z"/></g>
<g><path style="opacity:0.294" fill="#091562" d="M 113.5,86.5 C 115.404,86.7376 116.738,87.7376 117.5,89.5C 115.596,89.2624 114.262,88.2624 113.5,86.5 Z"/></g>
<g><path style="opacity:0.533" fill="#03136d" d="M 79.5,86.5 C 78.7377,88.2624 77.4044,89.2624 75.5,89.5C 76.2623,87.7376 77.5956,86.7376 79.5,86.5 Z"/></g>
<g><path style="opacity:0.49" fill="#08196f" d="M 106.5,85.5 C 107.167,85.5 107.833,85.5 108.5,85.5C 110.909,87.9024 112.909,90.5691 114.5,93.5C 111.5,91.1667 108.833,88.5 106.5,85.5 Z"/></g>
<g><path style="opacity:0.514" fill="#02146c" d="M 123.5,87.5 C 126.167,88.1667 127.833,89.8333 128.5,92.5C 126.5,91.1667 124.833,89.5 123.5,87.5 Z"/></g>
<g><path style="opacity:0.424" fill="#081d72" d="M 115.5,84.5 C 116.833,84.8333 118.167,85.1667 119.5,85.5C 120.167,85.5 120.5,85.8333 120.5,86.5C 123.239,89.2327 125.573,92.2327 127.5,95.5C 123.474,91.8051 119.474,88.1384 115.5,84.5 Z"/></g>
<g><path style="opacity:0.012" fill="#000a5f" d="M 55.5,93.5 C 55.573,95.0269 54.9063,96.0269 53.5,96.5C 53.427,94.9731 54.0937,93.9731 55.5,93.5 Z"/></g>
<g><path style="opacity:0.055" fill="#000e66" d="M 68.5,92.5 C 68.573,94.0269 67.9063,95.0269 66.5,95.5C 66.427,93.9731 67.0937,92.9731 68.5,92.5 Z"/></g>
<g><path style="opacity:0.525" fill="#0e1d71" d="M 59.5,94.5 C 61.6074,95.4682 63.9407,95.8016 66.5,95.5C 63.9759,96.8003 61.3092,96.8003 58.5,95.5C 58.6236,94.8933 58.9569,94.56 59.5,94.5 Z"/></g>
<g><path style="opacity:0.446" fill="#04146c" d="M 70.5,94.5 C 74.0649,95.7866 77.7316,95.7866 81.5,94.5C 79.9522,95.7943 77.9522,96.4609 75.5,96.5C 73.5,96.1667 71.5,95.8333 69.5,95.5C 69.6236,94.8933 69.9569,94.56 70.5,94.5 Z"/></g>
<g><path style="opacity:0.196" fill="#162274" d="M 98.5,88.5 C 100.098,90.3952 101.432,92.5619 102.5,95C 105.696,95.8045 108.696,95.6378 111.5,94.5C 112.289,94.7828 112.956,95.2828 113.5,96C 109.5,96.6667 105.5,96.6667 101.5,96C 100.009,93.6922 99.0087,91.1922 98.5,88.5 Z"/></g>
<g><path style="opacity:0.204" fill="#162476" d="M 117.5,89.5 C 120.596,90.7595 122.929,92.9262 124.5,96C 121.633,96.8007 118.966,96.6341 116.5,95.5C 118.527,95.6621 120.527,95.4955 122.5,95C 120.627,93.2962 118.96,91.4628 117.5,89.5 Z"/></g>
<g><path style="opacity:0.047" fill="#04186c" d="M 130.5,94.5 C 131.906,94.9731 132.573,95.9731 132.5,97.5C 131.094,97.0269 130.427,96.0269 130.5,94.5 Z"/></g>
<g><path style="opacity:0.273" fill="#0a1975" d="M 128.5,96.5 C 129.906,96.9731 130.573,97.9731 130.5,99.5C 129.094,99.0269 128.427,98.0269 128.5,96.5 Z"/></g>
<g><path style="opacity:0.024" fill="#02297c" d="M 26.5,9.5 C 25.5,9.5 24.5,9.5 23.5,9.5C 23.5,65.8333 23.5,122.167 23.5,178.5C 22.501,122.002 22.1677,65.3358 22.5,8.5C 24.099,8.23219 25.4324,8.56552 26.5,9.5 Z"/></g>
<g><path style="opacity:0.346" fill="#010d68" d="M 169.5,26.5 C 169.5,26.8333 169.5,27.1667 169.5,27.5C 167.738,27.3573 166.071,27.6906 164.5,28.5C 164.164,80.5065 163.164,132.173 161.5,183.5C 162.833,132.196 162.833,80.863 161.5,29.5C 163.536,27.0162 166.202,26.0162 169.5,26.5 Z"/></g>
<g><path style="opacity:1" fill="#dfdbea" d="M 55.5,99.5 C 57.924,99.1924 60.2573,99.5258 62.5,100.5C 61.5435,102.075 60.8769,103.742 60.5,105.5C 59.6641,109.323 58.6641,112.989 57.5,116.5C 56.5489,117.919 56.2155,119.585 56.5,121.5C 53.8333,121.5 51.1667,121.5 48.5,121.5C 48.5,119.833 48.5,118.167 48.5,116.5C 49.0968,110.025 51.4301,104.358 55.5,99.5 Z"/></g>
<g><path style="opacity:1" fill="#f1eff6" d="M 78.5,104.5 C 76.8634,109.927 75.8634,115.593 75.5,121.5C 70.1563,121.666 64.8229,121.499 59.5,121C 60.5396,117.6 61.2062,114.1 61.5,110.5C 61.2627,109.209 61.596,108.209 62.5,107.5C 64.341,105.151 65.6743,102.485 66.5,99.5C 70.6463,98.353 74.9796,98.1864 79.5,99C 80.3411,100.996 80.0077,102.829 78.5,104.5 Z"/></g>
<g><path style="opacity:1" fill="#f7f6fa" d="M 82.5,99.5 C 85.5,99.5 88.5,99.5 91.5,99.5C 91.5,106.833 91.5,114.167 91.5,121.5C 87.5,121.5 83.5,121.5 79.5,121.5C 79.6686,116.819 80.0019,112.152 80.5,107.5C 80.5651,104.572 81.2318,101.905 82.5,99.5 Z"/></g>
<g><path style="opacity:0.247" fill="#1d2779" d="M 127.5,100.5 C 124.941,100.198 122.607,100.532 120.5,101.5C 119.957,101.44 119.624,101.107 119.5,100.5C 121.246,99.6047 123.08,98.938 125,98.5C 126.301,98.6387 127.134,99.3054 127.5,100.5 Z"/></g>
<g><path style="opacity:0.024" fill="#0e2176" d="M 133.5,99.5 C 135.588,101.336 136.921,103.669 137.5,106.5C 135.412,104.664 134.079,102.331 133.5,99.5 Z"/></g>
<g><path style="opacity:0.141" fill="#0c1b71" d="M 55.5,99.5 C 57.9664,98.3659 60.633,98.1993 63.5,99C 64.056,99.3826 64.3893,99.8826 64.5,100.5C 63.6618,100.842 63.3284,101.508 63.5,102.5C 62.6618,102.842 62.3284,103.508 62.5,104.5C 61.8333,104.833 61.1667,105.167 60.5,105.5C 60.8769,103.742 61.5435,102.075 62.5,100.5C 60.2573,99.5258 57.924,99.1924 55.5,99.5 Z"/></g>
<g><path style="opacity:0.58" fill="#061d70" d="M 127.5,100.5 C 129.873,102.579 131.206,105.246 131.5,108.5C 129.659,106.151 128.326,103.485 127.5,100.5 Z"/></g>
<g><path style="opacity:0.38" fill="#101c72" d="M 116.5,101.5 C 112.6,100.57 108.6,100.237 104.5,100.5C 105.051,103.807 105.384,107.14 105.5,110.5C 104.513,107.287 103.513,103.954 102.5,100.5C 102.808,99.6919 103.308,99.0253 104,98.5C 106.101,99.6145 108.267,99.6145 110.5,98.5C 113.126,98.6217 115.126,99.6217 116.5,101.5 Z"/></g>
<g><path style="opacity:0.412" fill="#121d6c" d="M 131.5,101.5 C 133.539,102.911 134.539,104.911 134.5,107.5C 132.992,105.819 131.992,103.819 131.5,101.5 Z"/></g>
<g><path style="opacity:0.257" fill="#152074" d="M 66.5,99.5 C 65.6743,102.485 64.341,105.151 62.5,107.5C 62.5,106.5 62.5,105.5 62.5,104.5C 63.3382,104.158 63.6716,103.492 63.5,102.5C 64.3382,102.158 64.6716,101.492 64.5,100.5C 65.1667,100.167 65.8333,99.8333 66.5,99.5 Z"/></g>
<g><path style="opacity:0.437" fill="#05116a" d="M 131.5,108.5 C 133.074,110.102 133.741,112.102 133.5,114.5C 132.262,112.786 131.595,110.786 131.5,108.5 Z"/></g>
<g><path style="opacity:0.086" fill="#091365" d="M 116.5,101.5 C 120.454,106.356 122.454,112.023 122.5,118.5C 120.912,112.739 118.912,107.072 116.5,101.5 Z"/></g>
<g><path style="opacity:0.043" fill="#162c78" d="M 182.5,200.5 C 182.5,142.5 182.5,84.5 182.5,26.5C 178.158,26.7395 173.824,27.0728 169.5,27.5C 169.5,27.1667 169.5,26.8333 169.5,26.5C 174.103,25.6167 178.77,25.2834 183.5,25.5C 183.832,84.0024 183.499,142.336 182.5,200.5 Z"/></g>
<g><path style="opacity:0.118" fill="#08176f" d="M 48.5,116.5 C 48.5,118.167 48.5,119.833 48.5,121.5C 51.1667,121.5 53.8333,121.5 56.5,121.5C 56.2155,119.585 56.5489,117.919 57.5,116.5C 57.5,118.833 57.5,121.167 57.5,123.5C 54.4816,123.665 51.4816,123.498 48.5,123C 47.1888,120.726 47.1888,118.56 48.5,116.5 Z"/></g>
<g><path style="opacity:0.537" fill="#0c1c71" d="M 78.5,104.5 C 78.0305,110.862 77.3639,117.195 76.5,123.5C 70.8236,123.666 65.1569,123.499 59.5,123C 58.9781,122.439 58.6448,121.772 58.5,121C 59.0293,117.243 60.0293,113.743 61.5,110.5C 61.2062,114.1 60.5396,117.6 59.5,121C 64.8229,121.499 70.1563,121.666 75.5,121.5C 75.8634,115.593 76.8634,109.927 78.5,104.5 Z"/></g>
<g><path style="opacity:0.165" fill="#142171" d="M 91.5,75.5 C 97.1843,75.2612 102.518,76.2612 107.5,78.5C 111.852,78.8457 115.519,80.5124 118.5,83.5C 117.167,83.1667 115.833,82.8333 114.5,82.5C 113.833,81.1667 113.167,81.1667 112.5,82.5C 105.75,79.9182 98.7497,78.5848 91.5,78.5C 91.4003,81.1085 92.0669,83.4418 93.5,85.5C 92.5206,88.6248 92.1872,91.9581 92.5,95.5C 94.1992,95.6602 95.8659,95.4935 97.5,95C 96.6634,93.9887 96.33,92.8221 96.5,91.5C 97.9313,92.7804 98.5979,94.4471 98.5,96.5C 96.076,96.1924 93.7427,96.5258 91.5,97.5C 91.6667,97.8333 91.8333,98.1667 92,98.5C 94.7191,99.4438 97.5525,99.7771 100.5,99.5C 102.26,107.062 103.26,114.729 103.5,122.5C 87.5,123.167 87.5,123.833 103.5,124.5C 103.871,131.829 102.871,138.829 100.5,145.5C 100.5,146.5 100.5,147.5 100.5,148.5C 97.4281,148.183 94.4281,148.516 91.5,149.5C 93.7427,150.474 96.076,150.808 98.5,150.5C 98.7406,152.898 98.0739,154.898 96.5,156.5C 96.4208,155.07 96.7542,153.736 97.5,152.5C 95.9936,151.253 94.4936,151.253 93,152.5C 92.1955,155.696 92.3622,158.696 93.5,161.5C 92.6295,164.112 91.9628,166.779 91.5,169.5C 90.7148,167.626 90.0482,165.626 89.5,163.5C 91.4228,159.971 92.0894,155.971 91.5,151.5C 88.6122,150.99 86.2789,151.656 84.5,153.5C 82.7673,152.992 82.434,152.159 83.5,151C 85.8333,150.667 88.1667,150.333 90.5,150C 88.4144,149.685 86.4144,149.185 84.5,148.5C 86.6074,147.532 88.9407,147.198 91.5,147.5C 91.5,140.167 91.5,132.833 91.5,125.5C 87.5,125.5 83.5,125.5 79.5,125.5C 79.6865,130.845 80.0199,136.178 80.5,141.5C 78.8827,136.084 78.216,130.417 78.5,124.5C 94.5,124.167 94.5,123.833 78.5,123.5C 78.1557,117.902 78.8224,112.568 80.5,107.5C 80.0019,112.152 79.6686,116.819 79.5,121.5C 83.5,121.5 87.5,121.5 91.5,121.5C 91.5,114.167 91.5,106.833 91.5,99.5C 88.5,99.5 85.5,99.5 82.5,99.5C 85.0277,98.8343 87.6944,98.1676 90.5,97.5C 88.8647,96.3192 87.198,96.3192 85.5,97.5C 83.5959,96.7434 83.2625,95.7434 84.5,94.5C 86.6074,95.4682 88.9407,95.8016 91.5,95.5C 91.6655,91.4862 91.4988,87.4862 91,83.5C 90.2917,84.3805 89.4584,85.0472 88.5,85.5C 89.7496,82.994 90.4162,80.3274 90.5,77.5C 92.5273,77.6621 94.5273,77.4955 96.5,77C 94.6183,76.8019 92.9516,76.3019 91.5,75.5 Z M 92.5,100.5 C 94.8333,100.5 97.1667,100.5 99.5,100.5C 100.825,107.45 101.825,114.45 102.5,121.5C 99.1667,121.5 95.8333,121.5 92.5,121.5C 92.5,114.5 92.5,107.5 92.5,100.5 Z M 100.5,145.5 C 98.1998,147.202 95.5331,147.868 92.5,147.5C 92.5,140.5 92.5,133.5 92.5,126.5C 95.8333,126.5 99.1667,126.5 102.5,126.5C 102.021,132.855 101.354,139.188 100.5,145.5 Z"/></g>
<g><path style="opacity:0.141" fill="#132075" d="M 105.5,110.5 C 106.236,113.695 106.903,117.029 107.5,120.5C 110,120.833 112.5,121.167 115,121.5C 117.929,121.475 120.429,120.809 122.5,119.5C 123.404,120.209 123.737,121.209 123.5,122.5C 117.824,122.666 112.157,122.499 106.5,122C 105.54,118.27 105.207,114.437 105.5,110.5 Z"/></g>
<g><path style="opacity:0.141" fill="#102073" d="M 121.5,103.5 C 124.701,108.96 126.368,114.96 126.5,121.5C 128.833,121.5 131.167,121.5 133.5,121.5C 133.5,119.5 133.5,117.5 133.5,115.5C 134.468,117.607 134.802,119.941 134.5,122.5C 131.5,122.5 128.5,122.5 125.5,122.5C 124.93,115.984 123.597,109.651 121.5,103.5 Z"/></g>
<g><path style="opacity:0.409" fill="#091d72" d="M 135.5,111.5 C 137.145,115.191 138.145,119.191 138.5,123.5C 138.145,127.809 137.145,131.809 135.5,135.5C 136.833,127.5 136.833,119.5 135.5,111.5 Z"/></g>
<g><path style="opacity:0.012" fill="#0c166f" d="M 138.5,109.5 C 142.408,118.845 142.408,128.178 138.5,137.5C 139.795,128.17 139.795,118.837 138.5,109.5 Z"/></g>
<g><path style="opacity:0.271" fill="#202a79" d="M 77.5,138.5 C 76.1045,134.409 75.4379,130.076 75.5,125.5C 70.1254,125.172 64.7921,125.505 59.5,126.5C 60.3928,129.084 60.7261,131.751 60.5,134.5C 59.2154,131.411 58.5488,128.078 58.5,124.5C 64.5,124.5 70.5,124.5 76.5,124.5C 77.1266,129.141 77.4599,133.807 77.5,138.5 Z"/></g>
<g><path style="opacity:0.535" fill="#131b64" d="M 118.5,143.5 C 119.705,138.145 121.038,132.812 122.5,127.5C 117.5,126.167 112.5,126.167 107.5,127.5C 106.903,130.971 106.236,134.305 105.5,137.5C 105.234,133.429 105.567,129.429 106.5,125.5C 111.802,124.337 117.136,124.171 122.5,125C 123.293,128.111 123.126,131.277 122,134.5C 121.495,137.865 120.328,140.865 118.5,143.5 Z"/></g>
<g><path style="opacity:0.607" fill="#171b5e" d="M 133.5,132.5 C 133.5,130.5 133.5,128.5 133.5,126.5C 131.167,126.5 128.833,126.5 126.5,126.5C 126.889,129.553 126.223,132.22 124.5,134.5C 125.051,131.193 125.384,127.86 125.5,124.5C 128.5,124.5 131.5,124.5 134.5,124.5C 134.806,127.385 134.473,130.052 133.5,132.5 Z"/></g>
<g><path style="opacity:1" fill="#eae7f1" d="M 58.5,136.5 C 59.7384,138.214 60.405,140.214 60.5,142.5C 60.8769,144.258 61.5435,145.925 62.5,147.5C 62.0431,148.298 61.3764,148.631 60.5,148.5C 58.6264,147.715 56.6264,147.048 54.5,146.5C 54.573,144.973 53.9063,143.973 52.5,143.5C 50.3987,140.203 49.0653,136.537 48.5,132.5C 48.5,130.167 48.5,127.833 48.5,125.5C 51.1667,125.5 53.8333,125.5 56.5,125.5C 56.4299,129.425 57.0966,133.091 58.5,136.5 Z"/></g>
<g><path style="opacity:1" fill="#f6f5f9" d="M 77.5,138.5 C 78.3414,140.379 78.6747,142.379 78.5,144.5C 78.6567,145.873 78.49,147.207 78,148.5C 74.2001,147.271 70.3667,147.271 66.5,148.5C 65.6618,148.158 65.3284,147.492 65.5,146.5C 65.0075,144.181 64.0075,142.181 62.5,140.5C 61.2616,138.786 60.595,136.786 60.5,134.5C 60.7261,131.751 60.3928,129.084 59.5,126.5C 64.7921,125.505 70.1254,125.172 75.5,125.5C 75.4379,130.076 76.1045,134.409 77.5,138.5 Z"/></g>
<g><path style="opacity:1" fill="#fdfcfd" d="M 84.5,148.5 C 84.1667,148.5 83.8333,148.5 83.5,148.5C 83.0113,147.005 82.3446,145.671 81.5,144.5C 80.8902,143.609 80.5569,142.609 80.5,141.5C 80.0199,136.178 79.6865,130.845 79.5,125.5C 83.5,125.5 87.5,125.5 91.5,125.5C 91.5,132.833 91.5,140.167 91.5,147.5C 88.9407,147.198 86.6074,147.532 84.5,148.5 Z"/></g>
<g><path style="opacity:0.163" fill="#0f2074" d="M 58.5,136.5 C 57.0966,133.091 56.4299,129.425 56.5,125.5C 53.8333,125.5 51.1667,125.5 48.5,125.5C 48.5,127.833 48.5,130.167 48.5,132.5C 47.5269,130.052 47.1936,127.385 47.5,124.5C 50.8333,124.5 54.1667,124.5 57.5,124.5C 57.8333,128.5 58.1667,132.5 58.5,136.5 Z"/></g>
<g><path style="opacity:0.263" fill="#001068" d="M 45.5,133.5 C 46.9313,134.78 47.5979,136.447 47.5,138.5C 46.0687,137.22 45.4021,135.553 45.5,133.5 Z"/></g>
<g><path style="opacity:0.453" fill="#0b1970" d="M 133.5,132.5 C 133.741,134.898 133.074,136.898 131.5,138.5C 131.595,136.214 132.262,134.214 133.5,132.5 Z"/></g>
<g><path style="opacity:0.243" fill="#011569" d="M 124.5,135.5 C 124.741,137.898 124.074,139.898 122.5,141.5C 122.595,139.214 123.262,137.214 124.5,135.5 Z"/></g>
<g><path style="opacity:0.314" fill="#091b72" d="M 134.5,139.5 C 134.598,141.553 133.931,143.22 132.5,144.5C 132.402,142.447 133.069,140.78 134.5,139.5 Z"/></g>
<g><path style="opacity:0.584" fill="#0e2175" d="M 62.5,140.5 C 64.0075,142.181 65.0075,144.181 65.5,146.5C 64.8333,146.167 64.1667,145.833 63.5,145.5C 63.6716,144.508 63.3382,143.842 62.5,143.5C 62.5,142.5 62.5,141.5 62.5,140.5 Z"/></g>
<g><path style="opacity:0.584" fill="#0d2077" d="M 118.5,143.5 C 118.573,145.027 117.906,146.027 116.5,146.5C 116.427,144.973 117.094,143.973 118.5,143.5 Z"/></g>
<g><path style="opacity:0.235" fill="#000c67" d="M 122.5,141.5 C 122.598,143.553 121.931,145.22 120.5,146.5C 120.402,144.447 121.069,142.78 122.5,141.5 Z"/></g>
<g><path style="opacity:0.427" fill="#0b196f" d="M 129.5,143.5 C 129.573,145.027 128.906,146.027 127.5,146.5C 127.427,144.973 128.094,143.973 129.5,143.5 Z"/></g>
<g><path style="opacity:0.102" fill="#000f70" d="M 52.5,143.5 C 53.9063,143.973 54.573,144.973 54.5,146.5C 53.0937,146.027 52.427,145.027 52.5,143.5 Z"/></g>
<g><path style="opacity:0.137" fill="#132472" d="M 60.5,142.5 C 61.1667,142.833 61.8333,143.167 62.5,143.5C 62.3284,144.492 62.6618,145.158 63.5,145.5C 63.5,146.833 63.5,148.167 63.5,149.5C 62.209,149.737 61.209,149.404 60.5,148.5C 61.3764,148.631 62.0431,148.298 62.5,147.5C 61.5435,145.925 60.8769,144.258 60.5,142.5 Z"/></g>
<g><path style="opacity:0.133" fill="#05156f" d="M 132.5,144.5 C 132.25,146.674 131.25,148.341 129.5,149.5C 129.75,147.326 130.75,145.659 132.5,144.5 Z"/></g>
<g><path style="opacity:0.525" fill="#02166e" d="M 54.5,146.5 C 56.6264,147.048 58.6264,147.715 60.5,148.5C 57.9179,148.975 55.9179,148.308 54.5,146.5 Z"/></g>
<g><path style="opacity:0.565" fill="#0f1b6d" d="M 78.5,144.5 C 79.4511,145.919 79.7845,147.585 79.5,149.5C 75.0565,149.299 70.7231,148.966 66.5,148.5C 70.3667,147.271 74.2001,147.271 78,148.5C 78.49,147.207 78.6567,145.873 78.5,144.5 Z"/></g>
<g><path style="opacity:0.612" fill="#10206e" d="M 81.5,144.5 C 82.3446,145.671 83.0113,147.005 83.5,148.5C 83.19,149.738 82.69,149.738 82,148.5C 81.51,147.207 81.3433,145.873 81.5,144.5 Z"/></g>
<g><path style="opacity:0.188" fill="#1d2c7a" d="M 104.5,142.5 C 104.5,144.167 104.5,145.833 104.5,147.5C 108.6,147.763 112.6,147.43 116.5,146.5C 114.603,147.805 112.269,148.471 109.5,148.5C 107.167,148.167 104.833,147.833 102.5,147.5C 103.028,145.664 103.694,143.997 104.5,142.5 Z"/></g>
<g><path style="opacity:0.137" fill="#1b2a79" d="M 120.5,146.5 C 122.726,147.756 125.059,147.756 127.5,146.5C 126.666,147.748 125.333,148.415 123.5,148.5C 122.167,148.167 120.833,147.833 119.5,147.5C 119.624,146.893 119.957,146.56 120.5,146.5 Z"/></g>
<g><path style="opacity:0.292" fill="#19277a" d="M 66.5,152.5 C 63.728,151.233 61.0613,151.233 58.5,152.5C 57.9569,152.44 57.6236,152.107 57.5,151.5C 59,151.167 60.5,150.833 62,150.5C 63.9855,150.569 65.4855,151.235 66.5,152.5 Z"/></g>
<g><path style="opacity:0.265" fill="#101f75" d="M 81.5,153.5 C 79.7853,152.343 77.7853,151.676 75.5,151.5C 73.3603,151.556 71.6936,152.223 70.5,153.5C 69.5222,153.189 68.8555,152.522 68.5,151.5C 72.7828,150.508 77.1161,150.174 81.5,150.5C 81.5,151.5 81.5,152.5 81.5,153.5 Z"/></g>
<g><path style="opacity:0.435" fill="#0b1a6d" d="M 117.5,151.5 C 119.693,150.203 122.027,150.203 124.5,151.5C 123.479,153.188 122.145,154.521 120.5,155.5C 120.557,154.391 120.89,153.391 121.5,152.5C 120.167,152.167 118.833,151.833 117.5,151.5 Z"/></g>
<g><path style="opacity:0.278" fill="#0a2071" d="M 133.5,148.5 C 133.573,150.027 132.906,151.027 131.5,151.5C 131.427,149.973 132.094,148.973 133.5,148.5 Z"/></g>
<g><path style="opacity:0.227" fill="#0e1052" d="M 52.5,149.5 C 53.9063,149.973 54.573,150.973 54.5,152.5C 53.0937,152.027 52.427,151.027 52.5,149.5 Z"/></g>
<g><path style="opacity:1" fill="#e7e4ef" d="M 58.5,152.5 C 61.0613,151.233 63.728,151.233 66.5,152.5C 67.8333,155.833 70.1667,158.167 73.5,159.5C 74.1667,159.5 74.5,159.833 74.5,160.5C 75.5736,161.885 76.9069,163.051 78.5,164C 77.9056,164.464 77.2389,164.631 76.5,164.5C 75.4863,163.326 74.153,162.66 72.5,162.5C 70.1815,162.008 68.1815,161.008 66.5,159.5C 65.0892,157.086 63.0892,155.419 60.5,154.5C 60.5,153.167 59.8333,152.5 58.5,152.5 Z"/></g>
<g><path style="opacity:1" fill="#ebe9f2" d="M 81.5,153.5 C 82.5375,154.93 83.2041,156.597 83.5,158.5C 83.427,160.027 84.0937,161.027 85.5,161.5C 85.631,162.239 85.4643,162.906 85,163.5C 84.3292,162.748 83.4959,162.414 82.5,162.5C 82.0269,161.094 81.0269,160.427 79.5,160.5C 77.4504,158.453 75.117,156.786 72.5,155.5C 71.5,155.167 70.8333,154.5 70.5,153.5C 71.6936,152.223 73.3603,151.556 75.5,151.5C 77.7853,151.676 79.7853,152.343 81.5,153.5 Z"/></g>
<g><path style="opacity:1" fill="#e9e7f1" d="M 89.5,163.5 C 88.6618,163.158 88.3284,162.492 88.5,161.5C 88.573,159.973 87.9063,158.973 86.5,158.5C 85.0687,157.22 84.4021,155.553 84.5,153.5C 86.2789,151.656 88.6122,150.99 91.5,151.5C 92.0894,155.971 91.4228,159.971 89.5,163.5 Z"/></g>
<g><path style="opacity:0.035" fill="#071d72" d="M 128.5,150.5 C 128.573,152.027 127.906,153.027 126.5,153.5C 126.427,151.973 127.094,150.973 128.5,150.5 Z"/></g>
<g><path style="opacity:0.608" fill="#05166e" d="M 58.5,152.5 C 59.8333,152.5 60.5,153.167 60.5,154.5C 59.5,154.167 58.8333,153.5 58.5,152.5 Z"/></g>
<g><path style="opacity:0.31" fill="#08156c" d="M 105.5,158.5 C 107.294,156.203 109.294,154.037 111.5,152C 108.076,151.253 104.743,151.42 101.5,152.5C 103.048,151.206 105.048,150.539 107.5,150.5C 109.5,150.833 111.5,151.167 113.5,151.5C 111.411,154.595 108.744,156.929 105.5,158.5 Z"/></g>
<g><path style="opacity:0.379" fill="#000864" d="M 60.5,154.5 C 63.0892,155.419 65.0892,157.086 66.5,159.5C 63.9108,158.581 61.9108,156.914 60.5,154.5 Z"/></g>
<g><path style="opacity:0.004" fill="#120c35" d="M 115.5,153.5 C 115.5,154.833 114.833,155.5 113.5,155.5C 113.833,154.5 114.5,153.833 115.5,153.5 Z"/></g>
<g><path style="opacity:0.376" fill="#0c1c74" d="M 66.5,152.5 C 69.1667,154.5 71.5,156.833 73.5,159.5C 70.1667,158.167 67.8333,155.833 66.5,152.5 Z"/></g>
<g><path style="opacity:0.031" fill="#03186c" d="M 113.5,155.5 C 113.167,157.833 111.833,159.167 109.5,159.5C 110.5,157.833 111.833,156.5 113.5,155.5 Z"/></g>
<g><path style="opacity:0.18" fill="#00106b" d="M 150.5,175.5 C 150.667,127.499 150.5,79.4988 150,31.5C 148.989,32.3366 147.822,32.67 146.5,32.5C 147.78,31.0687 149.447,30.4021 151.5,30.5C 151.832,79.0029 151.499,127.336 150.5,175.5 Z"/></g>
<g><path style="opacity:0.122" fill="#03146e" d="M 100.5,155.5 C 100.771,157.38 100.104,158.713 98.5,159.5C 98.6596,157.847 99.3263,156.514 100.5,155.5 Z"/></g>
<g><path style="opacity:0.373" fill="#0d1d73" d="M 129.5,154.5 C 128.089,156.914 126.089,158.581 123.5,159.5C 124.911,157.086 126.911,155.419 129.5,154.5 Z"/></g>
<g><path style="opacity:0.325" fill="#030d63" d="M 72.5,155.5 C 75.117,156.786 77.4504,158.453 79.5,160.5C 76.3257,159.99 73.9923,158.323 72.5,155.5 Z"/></g>
<g><path style="opacity:0.49" fill="#0d2072" d="M 95.5,158.5 C 95.573,160.027 94.9063,161.027 93.5,161.5C 93.427,159.973 94.0937,158.973 95.5,158.5 Z"/></g>
<g><path style="opacity:0.239" fill="#0a1b6d" d="M 83.5,158.5 C 84.9063,158.973 85.573,159.973 85.5,161.5C 84.0937,161.027 83.427,160.027 83.5,158.5 Z"/></g>
<g><path style="opacity:0.102" fill="#07106b" d="M 86.5,158.5 C 87.9063,158.973 88.573,159.973 88.5,161.5C 87.0937,161.027 86.427,160.027 86.5,158.5 Z"/></g>
<g><path style="opacity:0.055" fill="#0e145b" d="M 109.5,159.5 C 109.167,160.167 108.833,160.833 108.5,161.5C 107.833,161.5 107.5,161.833 107.5,162.5C 106.833,162.5 106.167,162.5 105.5,162.5C 106.262,160.738 107.596,159.738 109.5,159.5 Z"/></g>
<g><path style="opacity:0.031" fill="#082078" d="M 120.5,159.5 C 120.167,160.167 119.833,160.833 119.5,161.5C 118.833,161.5 118.167,161.5 117.5,161.5C 117.973,160.094 118.973,159.427 120.5,159.5 Z"/></g>
<g><path style="opacity:0.349" fill="#000f6a" d="M 79.5,160.5 C 81.0269,160.427 82.0269,161.094 82.5,162.5C 80.9731,162.573 79.9731,161.906 79.5,160.5 Z"/></g>
<g><path style="opacity:0.043" fill="#0b1b72" d="M 102.5,160.5 C 100.602,162.96 98.2686,163.96 95.5,163.5C 95.8555,162.478 96.5222,161.811 97.5,161.5C 97.8333,162.833 98.1667,162.833 98.5,161.5C 99.8333,161.167 101.167,160.833 102.5,160.5 Z"/></g>
<g><path style="opacity:0.349" fill="#151c5f" d="M 108.5,161.5 C 109.5,161.5 110.5,161.5 111.5,161.5C 110.486,162.674 109.153,163.34 107.5,163.5C 107.5,163.167 107.5,162.833 107.5,162.5C 108.167,162.5 108.5,162.167 108.5,161.5 Z"/></g>
<g><path style="opacity:0.396" fill="#0d1a6f" d="M 119.5,161.5 C 120.167,161.5 120.833,161.5 121.5,161.5C 121.027,162.906 120.027,163.573 118.5,163.5C 118.833,162.833 119.167,162.167 119.5,161.5 Z"/></g>
<g><path style="opacity:0.063" fill="#010f70" d="M 72.5,162.5 C 74.153,162.66 75.4863,163.326 76.5,164.5C 74.6203,164.771 73.287,164.104 72.5,162.5 Z"/></g>
<g><path style="opacity:0.184" fill="#101d77" d="M 85.5,161.5 C 87.3675,162.786 87.5342,164.119 86,165.5C 84.4815,164.837 83.3149,163.837 82.5,162.5C 83.4959,162.414 84.3292,162.748 85,163.5C 85.4643,162.906 85.631,162.239 85.5,161.5 Z"/></g>
<g><path style="opacity:0.243" fill="#08186b" d="M 74.5,160.5 C 77.4552,160.981 79.7885,162.481 81.5,165C 79.6131,165.78 77.9464,165.613 76.5,164.5C 77.2389,164.631 77.9056,164.464 78.5,164C 76.9069,163.051 75.5736,161.885 74.5,160.5 Z"/></g>
<g><path style="opacity:0.49" fill="#162777" d="M 105.5,162.5 C 105.842,163.338 106.508,163.672 107.5,163.5C 105.35,164.67 103.016,165.67 100.5,166.5C 99.3044,166.154 99.3044,165.654 100.5,165C 102.078,163.906 103.745,163.072 105.5,162.5 Z"/></g>
<g><path style="opacity:0.09" fill="#0f1a67" d="M 114.5,163.5 C 112.969,164.925 113.302,165.591 115.5,165.5C 113.574,167.293 111.241,168.293 108.5,168.5C 108.5,168.167 108.5,167.833 108.5,167.5C 109.492,167.672 110.158,167.338 110.5,166.5C 113.167,166.167 113.167,165.833 110.5,165.5C 111.514,164.326 112.847,163.66 114.5,163.5 Z"/></g>
<g><path style="opacity:0.051" fill="#0f2172" d="M 110.5,165.5 C 110.5,165.833 110.5,166.167 110.5,166.5C 109.508,166.328 108.842,166.662 108.5,167.5C 107.167,167.5 105.833,167.5 104.5,167.5C 106.214,166.262 108.214,165.595 110.5,165.5 Z"/></g>
<g><path style="opacity:0.477" fill="#1b297a" d="M 104.5,167.5 C 101.742,168.967 102.075,169.633 105.5,169.5C 101.119,171.211 96.4526,171.877 91.5,171.5C 91.5,170.833 91.5,170.167 91.5,169.5C 95.8333,168.833 100.167,168.167 104.5,167.5 Z"/></g>
<g><path style="opacity:0.004" fill="#120a35" d="M 149.5,176.5 C 149.5,177.833 148.833,178.5 147.5,178.5C 147.833,177.5 148.5,176.833 149.5,176.5 Z"/></g>
<g><path style="opacity:0.282" fill="#0e2276" d="M 58.5,177.5 C 59.9063,177.973 60.573,178.973 60.5,180.5C 59.0937,180.027 58.427,179.027 58.5,177.5 Z"/></g>
<g><path style="opacity:0.522" fill="#000b6d" d="M 28.5,181.5 C 30.0269,181.427 31.0269,182.094 31.5,183.5C 29.9731,183.573 28.9731,182.906 28.5,181.5 Z"/></g>
<g><path style="opacity:0.075" fill="#000d6b" d="M 144.5,181.5 C 144.167,182.5 143.5,183.167 142.5,183.5C 142.5,182.167 143.167,181.5 144.5,181.5 Z"/></g>
<g><path style="opacity:0.424" fill="#000366" d="M 31.5,183.5 C 33.0269,183.427 34.0269,184.094 34.5,185.5C 32.9731,185.573 31.9731,184.906 31.5,183.5 Z"/></g>
<g><path style="opacity:0.012" fill="#000660" d="M 142.5,183.5 C 142.027,184.906 141.027,185.573 139.5,185.5C 139.973,184.094 140.973,183.427 142.5,183.5 Z"/></g>
<g><path style="opacity:0.11" fill="#010867" d="M 15.5,177.5 C 16.2368,180.725 16.9035,184.059 17.5,187.5C 15.5977,184.663 14.931,181.329 15.5,177.5 Z"/></g>
<g><path style="opacity:0.318" fill="#0d2275" d="M 62.5,183.5 C 63.9063,183.973 64.573,184.973 64.5,186.5C 63.0937,186.027 62.427,185.027 62.5,183.5 Z"/></g>
<g><path style="opacity:0.608" fill="#0f1e71" d="M 159.5,184.5 C 158.341,186.25 156.674,187.25 154.5,187.5C 155.659,185.75 157.326,184.75 159.5,184.5 Z"/></g>
<g><path style="opacity:0.271" fill="#000a6c" d="M 36.5,187.5 C 38.0269,187.427 39.0269,188.094 39.5,189.5C 37.9731,189.573 36.9731,188.906 36.5,187.5 Z"/></g>
<g><path style="opacity:0.592" fill="#091f72" d="M 154.5,187.5 C 154.027,188.906 153.027,189.573 151.5,189.5C 151.973,188.094 152.973,187.427 154.5,187.5 Z"/></g>
<g><path style="opacity:0.027" fill="#0c2272" d="M 23.5,190.5 C 25.0269,190.427 26.0269,191.094 26.5,192.5C 24.9731,192.573 23.9731,191.906 23.5,190.5 Z"/></g>
<g><path style="opacity:0.525" fill="#121859" d="M 66.5,189.5 C 67.9063,189.973 68.573,190.973 68.5,192.5C 67.0937,192.027 66.427,191.027 66.5,189.5 Z"/></g>
<g><path style="opacity:0.369" fill="#101b78" d="M 151.5,189.5 C 150.738,191.262 149.404,192.262 147.5,192.5C 148.262,190.738 149.596,189.738 151.5,189.5 Z"/></g>
<g><path style="opacity:0.031" fill="#0d084e" d="M 134.5,190.5 C 134.573,192.027 133.906,193.027 132.5,193.5C 132.427,191.973 133.094,190.973 134.5,190.5 Z"/></g>
<g><path style="opacity:0.288" fill="#122671" d="M 28.5,193.5 C 30.0269,193.427 31.0269,194.094 31.5,195.5C 29.9731,195.573 28.9731,194.906 28.5,193.5 Z"/></g>
<g><path style="opacity:0.51" fill="#091d70" d="M 146.5,193.5 C 146.027,194.906 145.027,195.573 143.5,195.5C 143.973,194.094 144.973,193.427 146.5,193.5 Z"/></g>
<g><path style="opacity:0.067" fill="#071e75" d="M 32.5,196.5 C 34.0269,196.427 35.0269,197.094 35.5,198.5C 33.9731,198.573 32.9731,197.906 32.5,196.5 Z"/></g>
<g><path style="opacity:0.071" fill="#001367" d="M 128.5,197.5 C 128.573,199.027 127.906,200.027 126.5,200.5C 126.427,198.973 127.094,197.973 128.5,197.5 Z"/></g>
<g><path style="opacity:0.273" fill="#000e66" d="M 2.5,201.5 C 5.82909,201.215 8.82909,201.882 11.5,203.5C 8.27267,203.324 5.27267,202.657 2.5,201.5 Z"/></g>
<g><path style="opacity:0.059" fill="#141c61" d="M 37.5,200.5 C 39.4044,200.738 40.7377,201.738 41.5,203.5C 39.5956,203.262 38.2623,202.262 37.5,200.5 Z"/></g>
<g><path style="opacity:0.553" fill="#0d176a" d="M 71.5,198.5 C 73.873,200.579 75.2064,203.246 75.5,206.5C 73.659,204.151 72.3257,201.485 71.5,198.5 Z"/></g>
<g><path style="opacity:0.257" fill="#000d69" d="M 182.5,200.5 C 182.082,201.222 181.416,201.722 180.5,202C 177.854,202.497 175.187,202.664 172.5,202.5C 175.656,201.566 178.989,200.899 182.5,200.5 Z"/></g>
<g><path style="opacity:0.086" fill="#021b6f" d="M 50.5,200.5 C 51.9063,200.973 52.573,201.973 52.5,203.5C 51.0937,203.027 50.427,202.027 50.5,200.5 Z"/></g>
<g><path style="opacity:0.584" fill="#0c1a72" d="M 140.5,198.5 C 137.833,201.833 134.833,204.833 131.5,207.5C 133.5,203.5 136.5,200.5 140.5,198.5 Z"/></g>
<g><path style="opacity:0.125" fill="#000a66" d="M 14.5,204.5 C 18.2971,204.872 21.6305,206.206 24.5,208.5C 20.8632,207.737 17.5299,206.403 14.5,204.5 Z"/></g>
<g><path style="opacity:0.059" fill="#0d0d4f" d="M 123.5,204.5 C 123.573,206.027 122.906,207.027 121.5,207.5C 121.427,205.973 122.094,204.973 123.5,204.5 Z"/></g>
<g><path style="opacity:0.102" fill="#000f70" d="M 54.5,205.5 C 55.9063,205.973 56.573,206.973 56.5,208.5C 55.0937,208.027 54.427,207.027 54.5,205.5 Z"/></g>
<g><path style="opacity:0.067" fill="#021070" d="M 56.5,208.5 C 57.9063,208.973 58.573,209.973 58.5,211.5C 57.0937,211.027 56.427,210.027 56.5,208.5 Z"/></g>
<g><path style="opacity:0.012" fill="#040f63" d="M 153.5,209.5 C 153.027,210.906 152.027,211.573 150.5,211.5C 150.973,210.094 151.973,209.427 153.5,209.5 Z"/></g>
<g><path style="opacity:0.071" fill="#0b0e53" d="M 28.5,210.5 C 30.153,210.66 31.4863,211.326 32.5,212.5C 30.6203,212.771 29.287,212.104 28.5,210.5 Z"/></g>
<g><path style="opacity:0.094" fill="#000d6d" d="M 120.5,209.5 C 120.573,211.027 119.906,212.027 118.5,212.5C 118.427,210.973 119.094,209.973 120.5,209.5 Z"/></g>
<g><path style="opacity:0.176" fill="#0e1153" d="M 118.5,212.5 C 118.573,214.027 117.906,215.027 116.5,215.5C 116.427,213.973 117.094,212.973 118.5,212.5 Z"/></g>
<g><path style="opacity:0.227" fill="#121757" d="M 126.5,212.5 C 126.573,214.027 125.906,215.027 124.5,215.5C 124.427,213.973 125.094,212.973 126.5,212.5 Z"/></g>
<g><path style="opacity:0.439" fill="#000a6e" d="M 36.5,215.5 C 38.0269,215.427 39.0269,216.094 39.5,217.5C 37.9731,217.573 36.9731,216.906 36.5,215.5 Z"/></g>
<g><path style="opacity:0.518" fill="#111860" d="M 52.5,214.5 C 54.2624,215.262 55.2624,216.596 55.5,218.5C 53.7376,217.738 52.7376,216.404 52.5,214.5 Z"/></g>
<g><path style="opacity:0.012" fill="#000d63" d="M 145.5,214.5 C 145.027,215.906 144.027,216.573 142.5,216.5C 142.973,215.094 143.973,214.427 145.5,214.5 Z"/></g>
<g><path style="opacity:0.016" fill="#020d74" d="M 142.5,216.5 C 142.027,217.906 141.027,218.573 139.5,218.5C 139.973,217.094 140.973,216.427 142.5,216.5 Z"/></g>
<g><path style="opacity:0.608" fill="#000b6d" d="M 40.5,218.5 C 42.4044,218.738 43.7377,219.738 44.5,221.5C 42.5956,221.262 41.2623,220.262 40.5,218.5 Z"/></g>
<g><path style="opacity:0.616" fill="#121d68" d="M 55.5,218.5 C 57.2624,219.262 58.2624,220.596 58.5,222.5C 56.7376,221.738 55.7376,220.404 55.5,218.5 Z"/></g>
<g><path style="opacity:0.039" fill="#001469" d="M 51.5,228.5 C 52.9063,228.973 53.573,229.973 53.5,231.5C 52.0937,231.027 51.427,230.027 51.5,228.5 Z"/></g>
<g><path style="opacity:0.373" fill="#0f1f6c" d="M 60.5,225.5 C 62.539,226.911 63.539,228.911 63.5,231.5C 61.9925,229.819 60.9925,227.819 60.5,225.5 Z"/></g>
<g><path style="opacity:0.265" fill="#0d135a" d="M 67.5,227.5 C 68.6737,228.514 69.3404,229.847 69.5,231.5C 67.8958,230.713 67.2291,229.38 67.5,227.5 Z"/></g>
<g><path style="opacity:0.196" fill="#041771" d="M 111.5,226.5 C 111.598,228.553 110.931,230.22 109.5,231.5C 109.402,229.447 110.069,227.78 111.5,226.5 Z"/></g>
<g><path style="opacity:0.102" fill="#02176c" d="M 128.5,229.5 C 128.573,231.027 127.906,232.027 126.5,232.5C 126.427,230.973 127.094,229.973 128.5,229.5 Z"/></g>
<g><path style="opacity:0.067" fill="#0d0f51" d="M 54.5,232.5 C 55.9063,232.973 56.573,233.973 56.5,235.5C 55.0937,235.027 54.427,234.027 54.5,232.5 Z"/></g>
<g><path style="opacity:0.6" fill="#0d1368" d="M 114.5,232.5 C 114.598,234.553 113.931,236.22 112.5,237.5C 112.402,235.447 113.069,233.78 114.5,232.5 Z"/></g>
<g><path style="opacity:0.149" fill="#081271" d="M 65.5,234.5 C 66.6737,235.514 67.3404,236.847 67.5,238.5C 65.8958,237.713 65.2291,236.38 65.5,234.5 Z"/></g>
<g><path style="opacity:0.004" fill="#120e36" d="M 56.5,235.5 C 57.5,235.833 58.1667,236.5 58.5,237.5C 57.1667,237.5 56.5,236.833 56.5,235.5 Z"/></g>
<g><path style="opacity:0.565" fill="#0a1466" d="M 70.5,234.5 C 72.0652,236.509 73.0652,238.843 73.5,241.5C 71.5516,239.68 70.5516,237.346 70.5,234.5 Z"/></g>
<g><path style="opacity:0.016" fill="#010a76" d="M 107.5,237.5 C 107.741,239.898 107.074,241.898 105.5,243.5C 105.595,241.214 106.262,239.214 107.5,237.5 Z"/></g>
<g><path style="opacity:0.357" fill="#0d145d" d="M 111.5,239.5 C 111.598,241.553 110.931,243.22 109.5,244.5C 109.402,242.447 110.069,240.78 111.5,239.5 Z"/></g>
<g><path style="opacity:0.149" fill="#101156" d="M 122.5,238.5 C 122.573,240.027 121.906,241.027 120.5,241.5C 120.427,239.973 121.094,238.973 122.5,238.5 Z"/></g>
<g><path style="opacity:0.173" fill="#061270" d="M 60.5,241.5 C 62.1042,242.287 62.7709,243.62 62.5,245.5C 61.3263,244.486 60.6596,243.153 60.5,241.5 Z"/></g>
<g><path style="opacity:0.376" fill="#101760" d="M 71.5,249.5 C 73.0739,251.102 73.7406,253.102 73.5,255.5C 72.2616,253.786 71.595,251.786 71.5,249.5 Z"/></g>
<g><path style="opacity:0.075" fill="#011171" d="M 75.5,249.5 C 76.7682,251.905 77.4349,254.572 77.5,257.5C 75.9605,255.162 75.2938,252.495 75.5,249.5 Z"/></g>
<g><path style="opacity:0.608" fill="#091775" d="M 66.5,255.5 C 68.0739,257.102 68.7406,259.102 68.5,261.5C 67.2616,259.786 66.595,257.786 66.5,255.5 Z"/></g>
<g><path style="opacity:0.024" fill="#04055b" d="M 86.5,246.5 C 88.0462,251.233 88.7129,256.233 88.5,261.5C 88.4987,265.349 88.1654,269.016 87.5,272.5C 87.632,263.809 87.2987,255.142 86.5,246.5 Z"/></g>
</svg>
